<?xml version="1.0" encoding="utf-8"?>
<!-- Generator: Adobe Illustrator 14.0.0, SVG Export Plug-In . SVG Version: 6.00 Build 43363)  -->
<!DOCTYPE svg PUBLIC "-//W3C//DTD SVG 1.1//EN" "http://www.w3.org/Graphics/SVG/1.1/DTD/svg11.dtd">
<svg version="1.1" id="Capa_1" xmlns="http://www.w3.org/2000/svg" xmlns:xlink="http://www.w3.org/1999/xlink" x="0px" y="0px"
	 width="30.125px" height="29.375px" viewBox="0 0 30.125 29.375" enable-background="new 0 0 30.125 29.375" xml:space="preserve">
<path fill="#FFFFFF" d="M20.246,13.419l-0.492-4.773h1.699c0.533,0,0.965-0.434,0.965-0.968V5.741c0-0.535-0.432-0.968-0.965-0.968
	H10.509c-0.533,0-0.965,0.434-0.965,0.968v1.938c0,0.535,0.432,0.968,0.965,0.968h1.698l-0.492,4.773
	c-1.952,0.91-3.459,2.542-3.459,4.59c0,0.534,0.432,0.968,0.966,0.968h5.472v4.197c0,0.05,0.012,0.1,0.034,0.145l0.965,1.937
	c0.119,0.238,0.458,0.238,0.576,0l0.966-1.937c0.022-0.045,0.034-0.095,0.034-0.145v-4.197h5.472c0.533,0,0.966-0.434,0.966-0.968
	C23.705,15.943,22.178,14.32,20.246,13.419z"/>
</svg>
