<?xml version="1.0" encoding="utf-8"?>
<!-- Generator: Adobe Illustrator 14.0.0, SVG Export Plug-In . SVG Version: 6.00 Build 43363)  -->
<!DOCTYPE svg PUBLIC "-//W3C//DTD SVG 1.1//EN" "http://www.w3.org/Graphics/SVG/1.1/DTD/svg11.dtd">
<svg version="1.1" id="Capa_1" xmlns="http://www.w3.org/2000/svg" xmlns:xlink="http://www.w3.org/1999/xlink" x="0px" y="0px"
	 width="30.125px" height="29.375px" viewBox="0 0 30.125 29.375" enable-background="new 0 0 30.125 29.375" xml:space="preserve">
<path fill="#FFFFFF" d="M5.438,23.626c0,1.138,0.924,2.062,2.063,2.062h15.125c1.139,0,2.063-0.924,2.063-2.062V11.938H5.438V23.626
	z M19.188,15.204c0-0.284,0.232-0.517,0.516-0.517h1.719c0.283,0,0.516,0.232,0.516,0.517v1.72c0,0.282-0.232,0.514-0.516,0.514
	h-1.719c-0.283,0-0.516-0.231-0.516-0.514V15.204z M19.188,20.704c0-0.284,0.232-0.517,0.516-0.517h1.719
	c0.283,0,0.516,0.232,0.516,0.517v1.72c0,0.282-0.232,0.514-0.516,0.514h-1.719c-0.283,0-0.516-0.231-0.516-0.514V20.704z
	 M13.688,15.204c0-0.284,0.232-0.517,0.516-0.517h1.719c0.283,0,0.516,0.232,0.516,0.517v1.72c0,0.282-0.232,0.514-0.516,0.514
	h-1.719c-0.283,0-0.516-0.231-0.516-0.514V15.204z M13.688,20.704c0-0.284,0.232-0.517,0.516-0.517h1.719
	c0.283,0,0.516,0.232,0.516,0.517v1.72c0,0.282-0.232,0.514-0.516,0.514h-1.719c-0.283,0-0.516-0.231-0.516-0.514V20.704z
	 M8.188,15.204c0-0.284,0.232-0.517,0.516-0.517h1.719c0.283,0,0.516,0.232,0.516,0.517v1.72c0,0.282-0.232,0.514-0.516,0.514H8.703
	c-0.283,0-0.516-0.231-0.516-0.514V15.204z M8.188,20.704c0-0.284,0.232-0.517,0.516-0.517h1.719c0.283,0,0.516,0.232,0.516,0.517
	v1.72c0,0.282-0.232,0.514-0.516,0.514H8.703c-0.283,0-0.516-0.231-0.516-0.514V20.704z M22.625,6.438h-2.063V4.376
	c0-0.378-0.31-0.688-0.688-0.688H18.5c-0.378,0-0.688,0.311-0.688,0.688v2.062h-5.5V4.376c0-0.378-0.31-0.688-0.688-0.688H10.25
	c-0.378,0-0.688,0.311-0.688,0.688v2.062H7.5c-1.139,0-2.063,0.925-2.063,2.063v2.062h19.25V8.501
	C24.688,7.362,23.764,6.438,22.625,6.438z"/>
</svg>
