<?xml version="1.0" encoding="utf-8"?>
<!-- Generator: Adobe Illustrator 14.0.0, SVG Export Plug-In . SVG Version: 6.00 Build 43363)  -->
<!DOCTYPE svg PUBLIC "-//W3C//DTD SVG 1.1//EN" "http://www.w3.org/Graphics/SVG/1.1/DTD/svg11.dtd">
<svg version="1.1" id="Capa_1" xmlns="http://www.w3.org/2000/svg" xmlns:xlink="http://www.w3.org/1999/xlink" x="0px" y="0px"
	 width="30.125px" height="29.375px" viewBox="0 0 30.125 29.375" enable-background="new 0 0 30.125 29.375" xml:space="preserve">
<path fill="#FFFFFF" d="M15.605,4.91c-2.658,0-4.813,2.154-4.813,4.813c0,2.148,3.146,6.064,4.35,7.486
	c0.244,0.288,0.682,0.288,0.925,0c1.205-1.422,4.351-5.338,4.351-7.486C20.418,7.064,18.264,4.91,15.605,4.91z M15.605,11.326
	c-0.887,0-1.604-0.718-1.604-1.604c0-0.887,0.717-1.604,1.604-1.604s1.604,0.718,1.604,1.604
	C17.209,10.608,16.492,11.326,15.605,11.326z M5.374,13.158c-0.228,0.09-0.421,0.247-0.558,0.449
	c-0.138,0.201-0.211,0.441-0.211,0.686v9.561c0,0.432,0.437,0.728,0.838,0.568l5.273-2.4v-8.903
	c-0.338-0.61-0.613-1.204-0.813-1.772L5.374,13.158z M15.605,18.646c-0.537,0-1.046-0.235-1.395-0.646
	c-0.751-0.887-1.549-1.896-2.271-2.931v6.95l7.332,2.445v-9.396C18.549,16.104,17.751,17.113,17,18
	C16.651,18.411,16.143,18.646,15.605,18.646z M25.768,11.065l-5.273,2.399v11l5.343-2.137c0.228-0.091,0.421-0.247,0.559-0.449
	c0.137-0.203,0.21-0.441,0.21-0.686v-9.561C26.605,11.2,26.169,10.904,25.768,11.065z"/>
</svg>
