<?xml version="1.0" encoding="utf-8"?>
<!-- Generator: Adobe Illustrator 14.0.0, SVG Export Plug-In . SVG Version: 6.00 Build 43363)  -->
<!DOCTYPE svg PUBLIC "-//W3C//DTD SVG 1.1//EN" "http://www.w3.org/Graphics/SVG/1.1/DTD/svg11.dtd">
<svg version="1.1" id="Capa_1" xmlns="http://www.w3.org/2000/svg" xmlns:xlink="http://www.w3.org/1999/xlink" x="0px" y="0px"
	 width="30.125px" height="29.375px" viewBox="0 0 30.125 29.375" enable-background="new 0 0 30.125 29.375" xml:space="preserve">
<path fill="#CECECE" d="M12.55,8.405h5.025l1.86-2.793c0.063-0.094,0.101-0.205,0.105-0.318c0.005-0.114-0.021-0.227-0.074-0.327
	c-0.053-0.1-0.133-0.184-0.23-0.242c-0.098-0.059-0.209-0.089-0.322-0.089h-7.702c-0.113,0-0.226,0.031-0.323,0.089
	c-0.098,0.058-0.177,0.142-0.231,0.242c-0.053,0.101-0.078,0.213-0.073,0.327c0.006,0.113,0.042,0.224,0.104,0.318L12.55,8.405z
	 M17.575,9.662H12.55c-7.947,4.532-7.537,10.549-7.537,11.309c0,2.082,1.93,3.771,4.308,3.771h11.486
	c2.379,0,4.307-1.688,4.307-3.771C25.111,20.225,25.479,14.168,17.575,9.662z M15.746,20.578v0.681
	c-0.001,0.091-0.036,0.177-0.102,0.239c-0.063,0.064-0.149,0.1-0.24,0.1h-0.684c-0.091,0-0.178-0.035-0.242-0.1
	c-0.063-0.063-0.1-0.148-0.101-0.239V20.57c-0.483-0.023-0.95-0.189-1.341-0.477c-0.039-0.029-0.07-0.068-0.094-0.111
	c-0.021-0.043-0.035-0.09-0.037-0.139c-0.003-0.049,0.006-0.098,0.023-0.143c0.017-0.045,0.046-0.085,0.081-0.119l0.505-0.475
	c0.058-0.053,0.132-0.084,0.21-0.09c0.079-0.006,0.156,0.017,0.222,0.062c0.164,0.103,0.354,0.155,0.547,0.155h1.201
	c0.277,0,0.504-0.248,0.504-0.559c0-0.253-0.154-0.473-0.377-0.535l-1.924-0.572c-0.795-0.234-1.35-0.988-1.35-1.834
	c0-1.037,0.812-1.878,1.824-1.907V13.14c0-0.09,0.037-0.177,0.102-0.24s0.15-0.099,0.241-0.098H15.4
	c0.091,0,0.177,0.035,0.241,0.099c0.063,0.063,0.101,0.149,0.102,0.24v0.689c0.484,0.025,0.949,0.191,1.342,0.478
	c0.038,0.03,0.068,0.067,0.093,0.11c0.022,0.043,0.035,0.09,0.037,0.139c0.003,0.048-0.006,0.097-0.022,0.142
	c-0.019,0.045-0.047,0.085-0.082,0.119l-0.5,0.479c-0.058,0.053-0.131,0.084-0.211,0.09c-0.078,0.004-0.155-0.017-0.221-0.061
	c-0.164-0.102-0.354-0.156-0.548-0.157h-1.199c-0.277,0-0.504,0.25-0.504,0.558c0,0.254,0.153,0.475,0.375,0.537l1.925,0.571
	c0.795,0.235,1.351,0.99,1.351,1.835C17.57,19.709,16.755,20.555,15.746,20.578z"/>
</svg>
