<?xml version="1.0" encoding="utf-8"?>
<!-- Generator: Adobe Illustrator 14.0.0, SVG Export Plug-In . SVG Version: 6.00 Build 43363)  -->
<!DOCTYPE svg PUBLIC "-//W3C//DTD SVG 1.1//EN" "http://www.w3.org/Graphics/SVG/1.1/DTD/svg11.dtd">
<svg version="1.1" id="Capa_1" focusable="false" xmlns="http://www.w3.org/2000/svg" xmlns:xlink="http://www.w3.org/1999/xlink"
	 x="0px" y="0px" width="1024px" height="768px" viewBox="0 0 1024 768" enable-background="new 0 0 1024 768" xml:space="preserve"
	>
<path fill="#EF0D00" d="M367.089,632.84H820c9.94,0,18-8.059,18-18v-84c0-9.94-8.06-18-18-18H367.089v-69.088
	c0-32.073-38.777-48.135-61.457-25.457L176.543,547.384c-14.059,14.059-14.059,36.854,0,50.911l129.089,129.089
	c22.679,22.679,61.457,6.616,61.457-25.457V632.84z"/>
<path d="M654.911,127.989H202c-9.94,0-18,8.059-18,18v84c0,9.94,8.06,18,18,18h452.911v69.088c0,32.073,38.777,48.135,61.457,25.457
	l129.089-129.089c14.059-14.06,14.059-36.854,0-50.911L716.368,33.445c-22.679-22.679-61.457-6.616-61.457,25.457V127.989z"/>
</svg>
