<?xml version="1.0" encoding="utf-8"?>
<!-- Generator: Adobe Illustrator 14.0.0, SVG Export Plug-In . SVG Version: 6.00 Build 43363)  -->
<!DOCTYPE svg PUBLIC "-//W3C//DTD SVG 1.1//EN" "http://www.w3.org/Graphics/SVG/1.1/DTD/svg11.dtd">
<svg version="1.1" id="Capa_1" xmlns="http://www.w3.org/2000/svg" xmlns:xlink="http://www.w3.org/1999/xlink" x="0px" y="0px"
	 width="30.125px" height="29.375px" viewBox="0 0 30.125 29.375" enable-background="new 0 0 30.125 29.375" xml:space="preserve">
<path fill="#004F86" d="M23.712,11.291H6.413c-0.27,0-0.489-0.221-0.489-0.49V9.332c0-1.081,0.877-1.958,1.958-1.958h1.959V5.253
	c0-0.271,0.22-0.489,0.489-0.489h1.632c0.27,0,0.489,0.219,0.489,0.489v2.121h5.222V5.253c0-0.271,0.222-0.489,0.49-0.489h1.632
	c0.27,0,0.489,0.219,0.489,0.489v2.121h1.959c1.08,0,1.958,0.877,1.958,1.958v1.469C24.201,11.07,23.98,11.291,23.712,11.291z
	 M6.413,12.596h17.299c0.269,0,0.489,0.221,0.489,0.49v10.607c0,1.08-0.878,1.957-1.958,1.957H7.882
	c-1.081,0-1.958-0.877-1.958-1.957V13.086C5.924,12.816,6.144,12.596,6.413,12.596z M19.307,18.309c0-0.271-0.222-0.49-0.49-0.49
	h-2.447V15.37c0-0.269-0.221-0.489-0.49-0.489h-1.631c-0.27,0-0.49,0.221-0.49,0.489v2.448H11.31c-0.27,0-0.49,0.22-0.49,0.49v1.631
	c0,0.27,0.221,0.49,0.49,0.49h2.447v2.446c0,0.271,0.221,0.49,0.49,0.49h1.631c0.271,0,0.49-0.222,0.49-0.49V20.43h2.446
	c0.271,0,0.49-0.221,0.49-0.49v-1.631H19.307z"/>
</svg>
