<?xml version="1.0" encoding="utf-8"?>
<!-- Generator: Adobe Illustrator 14.0.0, SVG Export Plug-In . SVG Version: 6.00 Build 43363)  -->
<!DOCTYPE svg PUBLIC "-//W3C//DTD SVG 1.1//EN" "http://www.w3.org/Graphics/SVG/1.1/DTD/svg11.dtd">
<svg version="1.1" id="Capa_1" xmlns="http://www.w3.org/2000/svg" xmlns:xlink="http://www.w3.org/1999/xlink" x="0px" y="0px"
	 width="30.125px" height="29.375px" viewBox="0 0 30.125 29.375" enable-background="new 0 0 30.125 29.375" xml:space="preserve">
<path fill="#004F86" d="M23.795,8.758L19.951,4.91c-0.303-0.303-0.629-0.275-0.907-0.275v5.026h5.026
	C24.07,9.366,24.096,9.059,23.795,8.758z M17.787,9.976v-5.34H9.935c-0.522,0-0.942,0.42-0.942,0.942v4.28
	c0.719-0.196,0.77-0.196,1.039-0.196c0.637,0,1.26,0.262,1.709,0.719c0.342,0.376,0.173,0.274,0.718,0.422
	c0.827,0.226,1.478,0.885,1.697,1.72c0.122,0.519,0.024,0.34,0.423,0.746c0.598,0.609,0.834,1.502,0.615,2.331
	c-0.146,0.521-0.145,0.314,0,0.869c0.219,0.83-0.018,1.723-0.615,2.332c-0.379,0.367-0.277,0.191-0.422,0.745
	c-0.192,0.729-0.713,1.325-1.395,1.614v3.581h10.366c0.522,0,0.942-0.421,0.942-0.942V10.918h-5.34
	C18.212,10.918,17.787,10.494,17.787,9.976z M13.682,17.918c0.291-0.295,0.404-0.727,0.297-1.13c-0.213-0.812-0.213-0.697,0-1.509
	c0.107-0.403-0.006-0.834-0.297-1.13c-0.584-0.594-0.527-0.495-0.741-1.306c-0.106-0.404-0.416-0.72-0.813-0.828
	c-0.796-0.217-0.7-0.161-1.283-0.754c-0.291-0.295-0.714-0.411-1.11-0.303c-0.798,0.218-0.686,0.217-1.482,0
	c-0.396-0.108-0.819,0.008-1.11,0.303c-0.586,0.596-0.491,0.538-1.283,0.754c-0.397,0.108-0.707,0.424-0.814,0.828
	c-0.214,0.813-0.156,0.712-0.74,1.306c-0.291,0.296-0.404,0.727-0.298,1.13c0.214,0.813,0.213,0.699,0,1.508
	c-0.106,0.404,0.007,0.835,0.298,1.131c0.583,0.594,0.527,0.494,0.74,1.307c0.107,0.403,0.417,0.719,0.814,0.826
	c0.562,0.154,0.451,0.117,0.621,0.197v4.49l2.514-1.256l2.513,1.256v-4.49c0.169-0.079,0.06-0.043,0.622-0.195
	c0.396-0.109,0.707-0.425,0.813-0.828C13.154,18.41,13.098,18.514,13.682,17.918z M8.992,18.457c-1.388,0-2.513-1.125-2.513-2.514
	c0-1.387,1.125-2.512,2.513-2.512c1.388,0,2.514,1.125,2.514,2.512C11.506,17.332,10.38,18.457,8.992,18.457z"/>
</svg>
