<?xml version="1.0" encoding="utf-8"?>
<!-- Generator: Adobe Illustrator 14.0.0, SVG Export Plug-In . SVG Version: 6.00 Build 43363)  -->
<!DOCTYPE svg PUBLIC "-//W3C//DTD SVG 1.1//EN" "http://www.w3.org/Graphics/SVG/1.1/DTD/svg11.dtd">
<svg version="1.1" id="Capa_1" xmlns="http://www.w3.org/2000/svg" xmlns:xlink="http://www.w3.org/1999/xlink" x="0px" y="0px"
	 width="30.125px" height="29.375px" viewBox="0 0 30.125 29.375" enable-background="new 0 0 30.125 29.375" xml:space="preserve">
<path fill="#FFFFFF" d="M12.822,21.422c-0.104-0.207-0.283-0.227-0.355-0.227s-0.252,0.02-0.35,0.215l-0.268,0.535
	c-0.223,0.446-0.873,0.396-1.029-0.072l-0.587-1.763l-0.37,1.113c-0.206,0.616-0.781,1.03-1.432,1.03H8
	c-0.309,0-0.559-0.25-0.559-0.559c0-0.308,0.25-0.558,0.559-0.558h0.432c0.169,0,0.318-0.106,0.371-0.267l0.635-1.908
	c0.115-0.342,0.436-0.572,0.796-0.572s0.68,0.23,0.794,0.572l0.485,1.453c0.688-0.564,1.887-0.338,2.304,0.494
	c0.066,0.133,0.191,0.209,0.326,0.219v-2.866l4.468-4.437v-1.623h-4.747c-0.461,0-0.838-0.377-0.838-0.838V6.617h-6.98
	c-0.465,0-0.838,0.373-0.838,0.838V23.65c0,0.465,0.373,0.838,0.838,0.838h11.728c0.464,0,0.838-0.373,0.838-0.838v-1.396
	l-4.468-0.004C13.58,22.24,13.075,21.926,12.822,21.422z M18.61,10.873c0-0.221-0.087-0.434-0.245-0.59l-3.416-3.422
	c-0.158-0.156-0.371-0.244-0.594-0.244h-0.213v4.469h4.468V10.873z M15.26,18.728v2.41h2.408l5.643-5.683l-2.369-2.369L15.26,18.728
	z M25.051,12.457l-1.111-1.111c-0.348-0.348-0.91-0.348-1.258,0l-0.951,0.951l2.369,2.369l0.951-0.951
	C25.398,13.367,25.398,12.805,25.051,12.457z"/>
</svg>
