<?xml version="1.0" encoding="utf-8"?>
<!-- Generator: Adobe Illustrator 14.0.0, SVG Export Plug-In . SVG Version: 6.00 Build 43363)  -->
<!DOCTYPE svg PUBLIC "-//W3C//DTD SVG 1.1//EN" "http://www.w3.org/Graphics/SVG/1.1/DTD/svg11.dtd">
<svg version="1.1" id="Capa_1" xmlns="http://www.w3.org/2000/svg" xmlns:xlink="http://www.w3.org/1999/xlink" x="0px" y="0px"
	 width="30.125px" height="29.375px" viewBox="0 0 30.125 29.375" enable-background="new 0 0 30.125 29.375" xml:space="preserve">
<path fill="#CECECE" d="M24.486,20.912H7.523V8.975c0-0.347-0.281-0.628-0.628-0.628H5.639c-0.347,0-0.628,0.281-0.628,0.628v13.194
	c0,0.694,0.563,1.257,1.257,1.257h18.22c0.347,0,0.628-0.281,0.628-0.629v-1.256C25.115,21.193,24.834,20.912,24.486,20.912z
	 M23.23,9.603h-4.637c-0.839,0-1.26,1.015-0.666,1.609l1.272,1.272l-2.882,2.881l-2.881-2.881c-0.491-0.491-1.286-0.491-1.776,0
	l-2.697,2.697c-0.246,0.245-0.246,0.643,0,0.889l0.889,0.888c0.244,0.245,0.643,0.245,0.888,0l1.81-1.809l2.881,2.88
	c0.49,0.49,1.285,0.49,1.776,0l3.771-3.769l1.271,1.271c0.594,0.594,1.609,0.174,1.609-0.667v-4.636
	C23.859,9.884,23.578,9.603,23.23,9.603z"/>
</svg>
