<?xml version="1.0" encoding="utf-8"?>
<!-- Generator: Adobe Illustrator 15.0.2, SVG Export Plug-In . SVG Version: 6.00 Build 0)  -->
<!DOCTYPE svg PUBLIC "-//W3C//DTD SVG 1.1//EN" "http://www.w3.org/Graphics/SVG/1.1/DTD/svg11.dtd">
<svg version="1.1" id="Capa_1" xmlns="http://www.w3.org/2000/svg" xmlns:xlink="http://www.w3.org/1999/xlink" x="0px" y="0px"
	 width="44.008px" height="27px" viewBox="0 0 44.008 27" enable-background="new 0 0 44.008 27" xml:space="preserve">
<g>
	<path fill="#c572db" fill-rule="evenodd" clip-rule="evenodd" d="M8.526,0c-0.03,0.074,11.31,0.148,11.368,0.044c0,0.474,0,2.324,0,2.798
		c-3.789,0-7.579,0-11.368,0C8.526,1.895,8.526,0.947,8.526,0z M25.401,0c3.315,0,8.23,0,11.546,0
		C36,3.315,35.053,6.632,34.105,9.947c2.842,0,5.685,0,8.526,0c-1.895,5.684-3.79,11.369-5.685,17.053c-6.157,0-13.604,0-19.761,0
		C20.028,18.001,22.56,8.999,25.401,0z M38.368,0.089c2.79,2.79,4.841,6.217,5.64,7.017c-0.474,0-5.166,0-5.64,0
		C38.368,5.685,38.368,1.51,38.368,0.089z M11.368,5.684c1.895,0,3.79,0,5.685,0c0,0.947,0,1.895,0,2.842
		c-0.105,0.019-5.653-0.065-5.653-0.166C11.399,8.327,11.368,6.883,11.368,5.684z M0,11.368c0.147,0.163,15.484-0.029,15.587,0.044
		c0,0.474,0.044,2.324,0.044,2.798c-0.098-0.002-15.593-0.027-15.593-0.11C0.039,13.637,0.076,11.45,0,11.368z M5.684,17.053
		c0.059,0.074,7.046,0.059,7.105,0.045c0,0.473,0,2.323,0,2.797c-0.015-0.026-7.001-0.079-7.019-0.13
		C5.742,19.685,5.73,17.296,5.684,17.053z M0,22.736c-0.045,0.074,12.701,0.06,12.79,0.045c0,0.474-0.044,2.546,0,2.798
		c-4.263,0-8.527,0-12.79,0C0,24.632,0,23.685,0,22.736z"/>
</g>
</svg>
