<?xml version="1.0" encoding="utf-8"?>
<!-- Generator: Adobe Illustrator 14.0.0, SVG Export Plug-In . SVG Version: 6.00 Build 43363)  -->
<!DOCTYPE svg PUBLIC "-//W3C//DTD SVG 1.1//EN" "http://www.w3.org/Graphics/SVG/1.1/DTD/svg11.dtd">
<svg version="1.1" id="Capa_1" xmlns="http://www.w3.org/2000/svg" xmlns:xlink="http://www.w3.org/1999/xlink" x="0px" y="0px"
	 width="30.125px" height="29.375px" viewBox="0 0 30.125 29.375" enable-background="new 0 0 30.125 29.375" xml:space="preserve">
<path fill="#CECECE" d="M15.063,9.764l-7.627,6.729c-0.057,0.051-0.129,0.073-0.191,0.116v6.455c0,0.31,0.25,0.56,0.559,0.56h5.209
	l-1.299-2.543l3.633-2.233l-2.1-4.161l5.168,4.773l-3.634,2.233l1.394,1.931h6.149c0.309,0,0.559-0.25,0.559-0.56v-6.455
	c-0.06-0.039-0.13-0.063-0.184-0.11L15.063,9.764z M24.93,13.998l-2.048-1.809V7.427c0-0.308-0.25-0.558-0.559-0.558H20.09
	c-0.309,0-0.559,0.25-0.559,0.558V9.23l-3.535-3.119c-0.266-0.24-0.6-0.359-0.934-0.359c-0.333-0.002-0.666,0.119-0.932,0.357
	l-8.936,7.889c-0.229,0.207-0.248,0.56-0.041,0.789L5.9,15.619c0.206,0.229,0.56,0.248,0.789,0.041l8.004-7.06
	c0.211-0.187,0.528-0.187,0.739,0l8.005,7.06c0.229,0.207,0.582,0.188,0.789-0.041l0.746-0.832
	C25.18,14.558,25.16,14.205,24.93,13.998z"/>
</svg>
