<?xml version="1.0" encoding="utf-8"?>
<!-- Generator: Adobe Illustrator 14.0.0, SVG Export Plug-In . SVG Version: 6.00 Build 43363)  -->
<!DOCTYPE svg PUBLIC "-//W3C//DTD SVG 1.1//EN" "http://www.w3.org/Graphics/SVG/1.1/DTD/svg11.dtd">
<svg version="1.1" id="Capa_1" xmlns="http://www.w3.org/2000/svg" xmlns:xlink="http://www.w3.org/1999/xlink" x="0px" y="0px"
	 width="30.125px" height="29.375px" viewBox="0 0 30.125 29.375" enable-background="new 0 0 30.125 29.375" xml:space="preserve">
<path fill="#FFFFFF" d="M6.125,6.575c-0.408,0-0.807,0.121-1.146,0.348C4.641,7.15,4.375,7.472,4.22,7.849
	C4.063,8.226,4.022,8.64,4.102,9.041c0.08,0.4,0.276,0.768,0.564,1.056c0.289,0.289,0.656,0.485,1.057,0.564
	s0.814,0.039,1.191-0.117s0.699-0.42,0.926-0.76c0.227-0.339,0.348-0.738,0.348-1.146c0-0.547-0.217-1.071-0.604-1.458
	C7.197,6.792,6.672,6.575,6.125,6.575z M6.125,13.45c-0.408,0-0.807,0.121-1.146,0.348c-0.338,0.227-0.604,0.549-0.759,0.926
	c-0.156,0.377-0.197,0.792-0.118,1.192c0.08,0.4,0.276,0.768,0.564,1.055c0.289,0.289,0.656,0.485,1.057,0.564
	c0.4,0.08,0.814,0.039,1.191-0.117s0.699-0.42,0.926-0.759c0.227-0.339,0.348-0.738,0.348-1.146c0-0.547-0.217-1.071-0.604-1.458
	C7.197,13.667,6.672,13.45,6.125,13.45z M6.125,20.325c-0.408,0-0.807,0.121-1.146,0.348C4.641,20.9,4.375,21.222,4.22,21.599
	c-0.156,0.377-0.197,0.792-0.118,1.192c0.08,0.399,0.276,0.768,0.564,1.055c0.289,0.289,0.656,0.485,1.057,0.564
	c0.4,0.08,0.814,0.039,1.191-0.117s0.699-0.42,0.926-0.76c0.227-0.338,0.348-0.737,0.348-1.146c0-0.547-0.217-1.071-0.604-1.458
	S6.672,20.325,6.125,20.325z M25.375,21.013h-13.75c-0.182,0-0.357,0.073-0.486,0.202s-0.201,0.303-0.201,0.485v1.375
	c0,0.183,0.072,0.357,0.201,0.486s0.305,0.201,0.486,0.201h13.75c0.182,0,0.357-0.072,0.486-0.201s0.201-0.304,0.201-0.486V21.7
	c0-0.183-0.072-0.356-0.201-0.485S25.557,21.013,25.375,21.013z M25.375,7.263h-13.75c-0.182,0-0.357,0.073-0.486,0.202
	s-0.201,0.304-0.201,0.486v1.375c0,0.183,0.072,0.357,0.201,0.486s0.305,0.201,0.486,0.201h13.75c0.182,0,0.357-0.072,0.486-0.201
	s0.201-0.304,0.201-0.486V7.95c0-0.182-0.072-0.357-0.201-0.486S25.557,7.263,25.375,7.263z M25.375,14.138h-13.75
	c-0.182,0-0.357,0.073-0.486,0.202s-0.201,0.304-0.201,0.486V16.2c0,0.183,0.072,0.357,0.201,0.486s0.305,0.201,0.486,0.201h13.75
	c0.182,0,0.357-0.072,0.486-0.201s0.201-0.304,0.201-0.486v-1.375c0-0.182-0.072-0.357-0.201-0.486S25.557,14.138,25.375,14.138z"/>
</svg>
